<svg xmlns="http://www.w3.org/2000/svg" width="1200" height="630" viewBox="0 0 1200 630" role="img" aria-labelledby="title desc">
  <title id="title">History of rainbow mystery</title>
  <desc id="desc">A stylized parchment and rainbow motif.</desc>
  <rect width="1200" height="630" fill="#fbf7ef"/>
  <rect x="180" y="90" width="840" height="450" rx="28" fill="#f0e2bf" stroke="#9b7b4f" stroke-width="8"/>
  <line x1="250" y1="180" x2="950" y2="180" stroke="#9b7b4f" stroke-width="8"/>
  <line x1="250" y1="245" x2="905" y2="245" stroke="#b39161" stroke-width="6"/>
  <line x1="250" y1="300" x2="930" y2="300" stroke="#b39161" stroke-width="6"/>
  <line x1="250" y1="355" x2="860" y2="355" stroke="#b39161" stroke-width="6"/>
  <line x1="250" y1="410" x2="890" y2="410" stroke="#b39161" stroke-width="6"/>
  <path d="M310 495 A180 180 0 0 1 670 495" fill="none" stroke="#d62828" stroke-width="18" stroke-linecap="round"/>
  <path d="M328 495 A162 162 0 0 1 652 495" fill="none" stroke="#f77f00" stroke-width="16" stroke-linecap="round"/>
  <path d="M345 495 A145 145 0 0 1 635 495" fill="none" stroke="#fcbf49" stroke-width="14" stroke-linecap="round"/>
  <path d="M360 495 A130 130 0 0 1 620 495" fill="none" stroke="#8ac926" stroke-width="12" stroke-linecap="round"/>
  <path d="M374 495 A116 116 0 0 1 606 495" fill="none" stroke="#1982c4" stroke-width="10" stroke-linecap="round"/>
  <path d="M386 495 A104 104 0 0 1 594 495" fill="none" stroke="#6a4c93" stroke-width="8" stroke-linecap="round"/>
</svg>
