<svg xmlns="http://www.w3.org/2000/svg" width="1200" height="630" viewBox="0 0 1200 630" role="img" aria-labelledby="title desc">
  <title id="title">More about rainbows</title>
  <desc id="desc">Primary and secondary rainbow arcs over a soft landscape.</desc>
  <rect width="1200" height="630" fill="#f7fbff"/>
  <rect y="470" width="1200" height="160" fill="#d6edc3"/>
  <path d="M160 470 A440 440 0 0 1 1040 470" fill="none" stroke="#d62828" stroke-width="24" stroke-linecap="round"/>
  <path d="M186 470 A414 414 0 0 1 1014 470" fill="none" stroke="#f77f00" stroke-width="22" stroke-linecap="round"/>
  <path d="M210 470 A390 390 0 0 1 990 470" fill="none" stroke="#fcbf49" stroke-width="20" stroke-linecap="round"/>
  <path d="M232 470 A368 368 0 0 1 968 470" fill="none" stroke="#8ac926" stroke-width="18" stroke-linecap="round"/>
  <path d="M252 470 A348 348 0 0 1 948 470" fill="none" stroke="#1982c4" stroke-width="16" stroke-linecap="round"/>
  <path d="M270 470 A330 330 0 0 1 930 470" fill="none" stroke="#6a4c93" stroke-width="14" stroke-linecap="round"/>
  <path d="M80 470 A520 520 0 0 1 1120 470" fill="none" stroke="#6a4c93" stroke-width="14" stroke-linecap="round" opacity="0.55"/>
  <path d="M96 470 A504 504 0 0 1 1104 470" fill="none" stroke="#1982c4" stroke-width="13" stroke-linecap="round" opacity="0.55"/>
  <path d="M112 470 A488 488 0 0 1 1088 470" fill="none" stroke="#8ac926" stroke-width="12" stroke-linecap="round" opacity="0.55"/>
  <path d="M126 470 A474 474 0 0 1 1074 470" fill="none" stroke="#fcbf49" stroke-width="11" stroke-linecap="round" opacity="0.55"/>
  <path d="M139 470 A461 461 0 0 1 1061 470" fill="none" stroke="#f77f00" stroke-width="10" stroke-linecap="round" opacity="0.55"/>
  <path d="M150 470 A450 450 0 0 1 1050 470" fill="none" stroke="#d62828" stroke-width="9" stroke-linecap="round" opacity="0.55"/>
</svg>
