<?xml version="1.0" encoding="utf-8"?>
<!-- Generator: Adobe Illustrator 28.1.0, SVG Export Plug-In . SVG Version: 6.00 Build 0)  -->
<svg version="1.1"
	 id="Capa_1" xmlns:rdf="http://www.w3.org/1999/02/22-rdf-syntax-ns#" xmlns:sodipodi="http://sodipodi.sourceforge.net/DTD/sodipodi-0.dtd" xmlns:dc="http://purl.org/dc/elements/1.1/" xmlns:inkscape="http://www.inkscape.org/namespaces/inkscape" xmlns:cc="http://creativecommons.org/ns#" xmlns:svg="http://www.w3.org/2000/svg"
	 xmlns="http://www.w3.org/2000/svg" xmlns:xlink="http://www.w3.org/1999/xlink" x="0px" y="0px" viewBox="0 0 333 333"
	 style="enable-background:new 0 0 333 333;" xml:space="preserve">
<style type="text/css">
	.st0{fill:#FFFF5F;stroke:#FFC02B;stroke-width:20;}
</style>
<sodipodi:namedview  bordercolor="#666666" borderopacity="1" gridtolerance="10" guidetolerance="10" id="namedview39" inkscape:current-layer="Capa_1" inkscape:cx="156.4995" inkscape:cy="156.4995" inkscape:pageopacity="0" inkscape:pageshadow="2" inkscape:window-height="1395" inkscape:window-maximized="1" inkscape:window-width="2560" inkscape:window-x="0" inkscape:window-y="1" inkscape:zoom="0.75399604" objecttolerance="10" pagecolor="#ffffff" showgrid="false">
	</sodipodi:namedview>
<g id="g6" transform="translate(10.068168,9.9848771)">
	<g id="g4">
		<path id="path2" inkscape:connector-curvature="0" sodipodi:nodetypes="cccssscccccsssccc" class="st0" d="M305.6,178.1
			c-3.2-0.8-6.4,0-9.2,2c-10.4,8.8-22.4,16-35.6,20.8c-12.4,4.8-26,7.2-40.4,7.2c-32.4,0-62-13.2-83.2-34.4s-34.4-50.8-34.4-83.2
			c0-13.6,2.4-26.8,6.4-38.8c4.4-12.8,10.8-24.4,19.2-34.4c3.6-4.4,2.8-10.8-1.6-14.4c-2.8-2-6-2.8-9.2-2
			c-34,9.2-63.6,29.6-84.8,56.8C12.4,84.5,0,117.7,0,154.1c0,43.6,17.6,83.2,46.4,112s68.4,46.4,112,46.4c36.8,0,70.8-12.8,98-34
			c27.6-21.6,47.6-52.4,56-87.6C314.4,184.9,311.2,179.3,305.6,178.1L305.6,178.1z"/>
	</g>
</g>
<g id="g8" transform="translate(0,20.001007)">
</g>
<g id="g10" transform="translate(0,20.001007)">
</g>
<g id="g12" transform="translate(0,20.001007)">
</g>
<g id="g14" transform="translate(0,20.001007)">
</g>
<g id="g16" transform="translate(0,20.001007)">
</g>
<g id="g18" transform="translate(0,20.001007)">
</g>
<g id="g20" transform="translate(0,20.001007)">
</g>
<g id="g22" transform="translate(0,20.001007)">
</g>
<g id="g24" transform="translate(0,20.001007)">
</g>
<g id="g26" transform="translate(0,20.001007)">
</g>
<g id="g28" transform="translate(0,20.001007)">
</g>
<g id="g30" transform="translate(0,20.001007)">
</g>
<g id="g32" transform="translate(0,20.001007)">
</g>
<g id="g34" transform="translate(0,20.001007)">
</g>
<g id="g36" transform="translate(0,20.001007)">
</g>
</svg>
