<?xml version="1.0" encoding="utf-8"?>
<!-- Generator: Adobe Illustrator 28.1.0, SVG Export Plug-In . SVG Version: 6.00 Build 0)  -->
<svg version="1.1" id="Layer_1" xmlns="http://www.w3.org/2000/svg" xmlns:xlink="http://www.w3.org/1999/xlink" x="0px" y="0px"
	 viewBox="0 0 307.6 307.6" style="enable-background:new 0 0 307.6 307.6;" xml:space="preserve">
<style type="text/css">
	.st0{fill:#FFC02B;}
</style>
<g id="Layer_2_00000062180714778358236180000004860029783984001160_">
</g>
<circle class="st0" cx="153.8" cy="153.8" r="54.4"/>
<path class="st0" d="M301.8,144.5L301.8,144.5L245,116.1l20.1-60.3c2.7-8.2-5-15.9-13.2-13.2l-60.3,20.1l-28.5-57
	c-3.8-7.7-14.8-7.7-18.6,0l-28.4,56.9L55.7,42.5c-8.2-2.7-15.9,5-13.2,13.2L62.7,116L5.8,144.5c-7.7,3.8-7.7,14.8,0,18.6l56.9,28.4
	l-20.1,60.4c-2.7,8.2,5,15.9,13.2,13.2l60.3-20.1l28.4,56.9c3.8,7.7,14.8,7.7,18.6,0l28.4-56.9l60.3,20.1c8.2,2.7,15.9-5,13.2-13.2
	l-20.1-60.3l56.9-28.4C309.5,159.3,309.5,148.3,301.8,144.5z M208.2,208.2c-30,30-78.8,30-108.7,0c-30-30-30-78.8,0-108.7
	c30-30,78.8-30,108.7,0C238.2,129.4,238.2,178.2,208.2,208.2z"/>
</svg>
