<?xml version="1.0" encoding="utf-8"?>
<!-- Generator: Adobe Illustrator 28.1.0, SVG Export Plug-In . SVG Version: 6.00 Build 0)  -->
<svg version="1.1" id="Layer_1" xmlns="http://www.w3.org/2000/svg" xmlns:xlink="http://www.w3.org/1999/xlink" x="0px" y="0px"
	 viewBox="0 0 307.6 307.6" style="enable-background:new 0 0 307.6 307.6;" xml:space="preserve">
<style type="text/css">
	.st0{fill:#FFC02B;}
</style>
<g id="Layer_2_00000062180714778358236180000004860029783984001160_">
</g>
<circle class="st0" cx="153.8" cy="153.8" r="76.2"/>
<path class="st0" d="M301.7,144.5L301.7,144.5L245,116.1l20-60.3c2.7-8.2-5-15.9-13.2-13.2l-60.3,20.1L163,5.7
	c-3.8-7.7-14.8-7.7-18.6,0L116,62.6l-60.3-20c-8.2-2.7-15.9,5-13.2,13.2L62.7,116L5.9,144.5c-7.7,3.8-7.7,14.8,0,18.6l56.9,28.4
	l-20.1,60.4c-2.7,8.2,5,15.9,13.2,13.2l60.3-20.1l28.4,56.9c3.8,7.7,14.8,7.7,18.6,0l28.4-56.9l60.3,20.1c8.2,2.7,15.9-5,13.2-13.2
	L245,191.6l56.9-28.4C309.4,159.3,309.4,148.3,301.7,144.5z M223.3,223.3c-38.3,38.3-100.7,38.3-138.9,0
	c-38.3-38.3-38.3-100.7,0-138.9c38.3-38.3,100.7-38.3,138.9,0C261.6,122.6,261.6,185,223.3,223.3z"/>
</svg>
