<svg xmlns="http://www.w3.org/2000/svg" xml:space="preserve" id="Layer_1" x="0" y="0" viewBox="0 0 307.6 307.6"><style>.st0{fill:#ffc02b}</style><circle cx="153.8" cy="153.8" r="76.2" class="st0"/><path d="M301.7 144.5 245 116.1l20-60.3c2.7-8.2-5-15.9-13.2-13.2l-60.3 20.1-28.5-57c-3.8-7.7-14.8-7.7-18.6 0L116 62.6l-60.3-20c-8.2-2.7-15.9 5-13.2 13.2L62.7 116 5.9 144.5c-7.7 3.8-7.7 14.8 0 18.6l56.9 28.4-20.1 60.4c-2.7 8.2 5 15.9 13.2 13.2l60.3-20.1 28.4 56.9c3.8 7.7 14.8 7.7 18.6 0l28.4-56.9 60.3 20.1c8.2 2.7 15.9-5 13.2-13.2L245 191.6l56.9-28.4c7.5-3.9 7.5-14.9-.2-18.7m-78.4 78.8c-38.3 38.3-100.7 38.3-138.9 0-38.3-38.3-38.3-100.7 0-138.9 38.3-38.3 100.7-38.3 138.9 0 38.3 38.2 38.3 100.6 0 138.9" class="st0"/></svg>